HIERARCHY
ROOT Hips
{
	OFFSET 0.00000 0.00000 0.00000
	CHANNELS 6 Xposition Yposition Zposition Zrotation Yrotation Xrotation 
	JOINT LHipJoint
	{
		OFFSET 0 0 0
		CHANNELS 3 Zrotation Yrotation Xrotation
		JOINT LeftUpLeg
		{
			OFFSET 1.62964 -1.40469 0.78906
			CHANNELS 3 Zrotation Yrotation Xrotation
			JOINT LeftLeg
			{
				OFFSET 2.29640 -6.30932 0.00000
				CHANNELS 3 Zrotation Yrotation Xrotation
				JOINT LeftFoot
				{
					OFFSET 2.29451 -6.30412 0.00000
					CHANNELS 3 Zrotation Yrotation Xrotation
					JOINT LeftToeBase
					{
						OFFSET 0.03611 -0.09921 1.56387
						CHANNELS 3 Zrotation Yrotation Xrotation
						End Site
						{
							OFFSET 0.00000 -0.00000 0.80291
						}
					}
				}
			}
		}
	}
	JOINT RHipJoint
	{
		OFFSET 0 0 0
		CHANNELS 3 Zrotation Yrotation Xrotation
		JOINT RightUpLeg
		{
			OFFSET -1.73712 -1.40469 0.78906
			CHANNELS 3 Zrotation Yrotation Xrotation
			JOINT RightLeg
			{
				OFFSET -2.28137 -6.26801 0.00000
				CHANNELS 3 Zrotation Yrotation Xrotation
				JOINT RightFoot
				{
					OFFSET -2.28681 -6.28298 0.00000
					CHANNELS 3 Zrotation Yrotation Xrotation
					JOINT RightToeBase
					{
						OFFSET -0.15927 -0.43759 1.61103
						CHANNELS 3 Zrotation Yrotation Xrotation
						End Site
						{
							OFFSET -0.00000 -0.00000 0.84630
						}
					}
				}
			}
		}
	}
	JOINT LowerBack
	{
		OFFSET 0 0 0
		CHANNELS 3 Zrotation Yrotation Xrotation
		JOINT Spine
		{
			OFFSET -0.04227 2.04338 -0.00225
			CHANNELS 3 Zrotation Yrotation Xrotation
			JOINT Spine1
			{
				OFFSET -0.02148 2.04482 -0.04273
				CHANNELS 3 Zrotation Yrotation Xrotation
				JOINT Neck
				{
					OFFSET 0 0 0
					CHANNELS 3 Zrotation Yrotation Xrotation
					JOINT Neck1
					{
						OFFSET 0.09180 1.44629 0.19359
						CHANNELS 3 Zrotation Yrotation Xrotation
						JOINT Head
						{
							OFFSET 0.00887 1.40645 0.14750
							CHANNELS 3 Zrotation Yrotation Xrotation
							End Site
							{
								OFFSET -0.00669 1.50671 0.03707
							}
						}
					}
				}
				JOINT LeftShoulder
				{
					OFFSET 0 0 0
					CHANNELS 3 Zrotation Yrotation Xrotation
					JOINT LeftArm
					{
						OFFSET 2.17674 1.86763 -0.06520
						CHANNELS 3 Zrotation Yrotation Xrotation
						JOINT LeftForeArm
						{
							OFFSET 4.65776 -0.00000 0.00000
							CHANNELS 3 Zrotation Yrotation Xrotation
							JOINT LeftHand
							{
								OFFSET 3.55539 -0.00000 0.00000
								CHANNELS 3 Zrotation Yrotation Xrotation
								JOINT LeftFingerBase
								{
									OFFSET 0 0 0
									CHANNELS 3 Zrotation Yrotation Xrotation
									JOINT LeftHandIndex1
									{
										OFFSET 0.70726 -0.00000 0.00000
										CHANNELS 3 Zrotation Yrotation Xrotation
										End Site
										{
											OFFSET 0.57022 -0.00000 0.00000
										}
									}
								}
								JOINT LThumb
								{
									OFFSET 0 0 0
									CHANNELS 3 Zrotation Yrotation Xrotation
									End Site
									{
										OFFSET 0.57892 -0.00000 0.57892
									}
								}
							}
						}
					}
				}
				JOINT RightShoulder
				{
					OFFSET 0 0 0
					CHANNELS 3 Zrotation Yrotation Xrotation
					JOINT RightArm
					{
						OFFSET -2.80694 1.55459 -0.32496
						CHANNELS 3 Zrotation Yrotation Xrotation
						JOINT RightForeArm
						{
							OFFSET -4.71925 -0.00000 -0.00000
							CHANNELS 3 Zrotation Yrotation Xrotation
							JOINT RightHand
							{
								OFFSET -3.56990 -0.00000 0.00000
								CHANNELS 3 Zrotation Yrotation Xrotation
								JOINT RightFingerBase
								{
									OFFSET 0 0 0
									CHANNELS 3 Zrotation Yrotation Xrotation
									JOINT RightHandIndex1
									{
										OFFSET -0.50776 -0.00000 0.00000
										CHANNELS 3 Zrotation Yrotation Xrotation
										End Site
										{
											OFFSET -0.40937 -0.00000 0.00000
										}
									}
								}
								JOINT RThumb
								{
									OFFSET 0 0 0
									CHANNELS 3 Zrotation Yrotation Xrotation
									End Site
									{
										OFFSET -0.41562 -0.00000 0.41562
									}
								}
							}
						}
					}
				}
			}
		}
	}
}
MOTION
Frames: 12
Frame Time: .0083333
22.6544 16.3838 30.6939 0 0 0 0 0 0 -21 0 0 0 0 0 0 0 0 0 0 0 0 0 0 21 0 0 0 0 0 0 0 0 0 0 0 0 0 0 0 0 0 0 0 0 0 0 -16 0 0 21 0 0 11 0 0 0 -8 0 0 0 0 0 0 0 0 0 0 0 0 0 0 0 0 0 0 0 0 8 0 0 0 0 0 0 0 0 0 0 0 0 0 0 0 0 0
22.6544 16.3838 30.6939 178.4170 -0.4485 -153.1080 0.0000 0.0000 0.0000 -17.5670 -17.1310 -20.1360 0.2111 2.9582 8.1623 0.1455 -3.8436 -6.8906 2.4777 -9.7973 -28.3229 0.0000 0.0000 0.0000 18.7757 12.3487 -18.3422 -0.0645 -1.6385 4.5076 -0.9632 -2.6446 -19.6713 -3.5927 11.5977 -34.3233 -7.0346 -1.3394 -30.9167 -0.6531 0.0253 -1.4724 3.0260 -0.7481 14.4943 -4.7827 -1.4847 1.9679 11.9680 -2.4038 0.1438 4.8549 -1.3999 -0.0845 0.0000 0.0000 0.0000 -84.1095 -2.8556 22.6802 13.0944 -21.4254 -2.4877 -0.0000 -0.0000 3.0148 22.0280 -8.7516 -3.5227 -7.1250 0.0000 -0.0000 -3.5040 20.5591 2.0541 0.0000 0.0000 0.0000 93.1029 -4.2613 4.7851 -15.4698 24.7965 -3.4206 0.0000 -0.0000 -0.6648 -10.7109 -56.2799 8.9408 7.1250 -0.0000 -0.0000 80.0575 -75.8512 -65.3897
22.6527 16.3794 30.6937 178.6380 -0.6460 -153.1480 0.0000 0.0000 0.0000 -17.3176 -17.0800 -20.1236 0.2123 2.9663 8.1851 0.1389 -3.8883 -6.7545 2.4133 -9.6785 -27.9419 0.0000 0.0000 0.0000 19.1216 12.1682 -18.3224 -0.0641 -1.6337 4.4945 -0.9646 -2.5744 -19.6505 -3.5648 11.5576 -34.1843 -6.7344 -1.3375 -30.8643 -0.5675 -0.0905 -1.4933 2.9128 -0.7792 14.4643 -4.6131 -1.4611 2.2057 11.7117 -2.3450 -0.0231 4.7306 -1.3749 -0.1923 0.0000 -0.0000 0.0000 -84.1573 -2.6221 22.8109 13.5244 -22.0507 -2.6469 -0.0000 -0.0000 2.8348 22.8858 -9.1277 -3.8310 -7.1250 0.0000 -0.0000 -2.8970 20.0932 1.7276 0.0000 -0.0000 0.0000 93.0444 -4.2902 4.7767 -15.4047 24.7068 -3.3933 0.0000 -0.0000 -0.6492 -11.1479 -55.0023 9.1700 7.1250 -0.0000 -0.0000 74.8968 -75.8631 -60.4049
22.6540 16.3816 30.6912 178.3870 -0.4429 -153.0910 0.0000 0.0000 0.0000 -17.6679 -16.9350 -20.2131 0.2128 2.9700 8.1953 0.1298 -3.8031 -6.5370 2.3573 -9.5736 -27.6067 0.0000 0.0000 0.0000 18.7111 12.4476 -18.3522 -0.0657 -1.6535 4.5491 -0.9651 -2.6666 -19.7001 -3.4418 11.3780 -33.5655 -7.0608 -1.4118 -31.0674 -0.5892 -0.0513 -1.4248 3.0772 -0.7894 14.6247 -4.8926 -1.1961 1.6502 12.1075 -2.0571 0.5505 4.9222 -1.2133 0.0744 -0.0000 0.0000 0.0000 -84.2341 -2.6994 23.0197 13.7749 -22.4120 -2.7417 -0.0000 -0.0000 2.4917 23.1314 -9.1811 -3.8992 -7.1250 0.0000 -0.0000 -2.7225 20.0172 1.6279 -0.0000 0.0000 0.0000 92.9686 -4.1970 4.7543 -15.3644 24.6513 -3.3765 0.0000 -0.0000 -0.5969 -11.7127 -54.2386 9.5496 7.1250 -0.0000 -0.0000 71.7284 -75.9333 -57.4813
22.6557 16.3808 30.6941 178.3430 -0.4108 -153.0220 0.0000 0.0000 0.0000 -17.7277 -16.8474 -20.3480 0.2148 2.9839 8.2339 0.1252 -3.7803 -6.4274 2.3919 -9.6387 -27.8146 0.0000 0.0000 0.0000 18.6434 12.5775 -18.4302 -0.0679 -1.6810 4.6249 -0.9699 -2.6927 -19.7587 -3.3970 11.3116 -33.3380 -7.1177 -1.4145 -31.0578 -0.6032 -0.0460 -1.4755 3.0938 -0.7911 14.5590 -4.8934 -1.2859 1.8187 11.9842 -2.1959 0.7629 4.8772 -1.2803 0.1247 -0.0000 -0.0000 0.0000 -84.2192 -2.6602 23.4371 14.0164 -22.7581 -2.8344 -0.0000 -0.0000 1.9667 23.2722 -8.3615 -3.5788 -7.1250 0.0000 -0.0000 -2.5977 20.8937 1.5020 -0.0000 -0.0000 0.0000 93.0169 -4.2767 4.6071 -15.3557 24.6393 -3.3728 0.0000 -0.0000 -0.5311 -12.2491 -53.4900 9.8983 7.1250 -0.0000 -0.0000 68.6045 -75.9604 -54.6008
22.6519 16.3833 30.6852 178.3480 -0.3403 -153.2500 0.0000 0.0000 0.0000 -17.8112 -16.9840 -19.8764 0.2057 2.9202 8.0566 0.1346 -3.4668 -6.5915 2.4729 -9.7884 -28.2943 0.0000 0.0000 0.0000 18.6892 12.3359 -18.1965 -0.0668 -1.6672 4.5867 -0.9684 -2.6164 -19.7073 -3.5310 11.5087 -34.0152 -7.0517 -1.3637 -31.0426 -0.6296 0.0321 -1.3357 3.0640 -0.7492 14.7104 -4.7972 -1.1924 1.6711 12.0429 -2.0835 0.8639 4.8771 -1.2212 0.1730 -0.0000 0.0000 0.0000 -84.2222 -2.7786 23.7504 14.1875 -23.0021 -2.9010 -0.0000 -0.0000 1.6105 23.3584 -8.2139 -3.5308 -7.1250 0.0000 -0.0000 -2.5314 21.0478 1.4548 -0.0000 0.0000 0.0000 93.0632 -4.1643 4.3061 -15.2945 24.5547 -3.3474 0.0000 -0.0000 -0.3710 -12.7328 -52.7176 10.1922 7.1250 -0.0000 -0.0000 65.4055 -75.9245 -51.6322
22.6514 16.3809 30.6825 178.3050 -0.3662 -153.2370 0.0000 0.0000 0.0000 -17.8589 -17.0064 -19.8730 0.2058 2.9209 8.0585 0.1362 -3.5318 -6.6377 2.5702 -9.9645 -28.8617 0.0000 0.0000 0.0000 18.6507 12.2758 -18.1984 -0.0657 -1.6541 4.5507 -0.9620 -2.7070 -19.6915 -3.6106 11.6233 -34.4121 -7.0818 -1.3633 -31.0397 -0.6413 0.0363 -1.3719 3.0684 -0.7495 14.6652 -4.8127 -1.1605 1.6865 12.1360 -2.0737 1.0908 4.9139 -1.2163 0.2442 -0.0000 0.0000 0.0000 -84.2149 -2.7033 24.0289 14.3458 -23.2269 -2.9631 -0.0000 -0.0000 1.3716 21.8769 -7.9438 -3.1762 -7.1250 0.0000 -0.0000 -3.5995 21.4352 2.0390 -0.0000 0.0000 0.0000 93.0841 -4.2830 4.1255 -15.2944 24.5546 -3.3473 0.0000 -0.0000 -0.4018 -13.5577 -51.2610 10.6525 7.1250 -0.0000 -0.0000 59.4918 -75.7202 -46.1385
22.6527 16.3803 30.6813 178.2610 -0.4301 -153.2400 0.0000 0.0000 0.0000 -17.8776 -17.0249 -19.8740 0.2051 2.9159 8.0446 0.1361 -3.6606 -6.6554 2.5454 -9.9200 -28.7180 0.0000 0.0000 0.0000 18.6053 12.3429 -18.1141 -0.0638 -1.6294 4.4825 -0.9598 -2.8392 -19.7366 -3.5555 11.5441 -34.1376 -7.1402 -1.3896 -31.0434 -0.6307 0.0215 -1.3713 3.1053 -0.7601 14.6681 -4.8620 -1.2344 1.8508 12.1587 -2.1940 1.2216 4.9336 -1.2800 0.2693 -0.0000 0.0000 0.0000 -84.2003 -2.7116 24.2653 14.4862 -23.4255 -3.0187 -0.0000 -0.0000 1.3572 22.5714 -8.1446 -3.3702 -7.1250 0.0000 -0.0000 -3.0994 21.1752 1.7731 -0.0000 0.0000 0.0000 93.0375 -4.4059 4.1727 -15.3465 24.6266 -3.3690 0.0000 -0.0000 -0.6471 -13.8895 -51.2404 10.9141 7.1250 -0.0000 -0.0000 59.2164 -75.8406 -46.0206
22.6554 16.3801 30.6824 178.2260 -0.3627 -153.1690 0.0000 0.0000 0.0000 -17.8916 -16.9854 -19.9829 0.2047 2.9135 8.0380 0.1325 -3.7277 -6.5849 2.3804 -9.6170 -27.7453 0.0000 0.0000 0.0000 18.5568 12.4142 -18.2029 -0.0647 -1.6407 4.5136 -0.9675 -2.7292 -19.7541 -3.5495 11.5355 -34.1079 -7.2203 -1.3989 -31.0951 -0.6240 0.0346 -1.3858 3.1597 -0.7619 14.6710 -4.9020 -1.3454 2.0075 12.1439 -2.3565 1.3018 4.9375 -1.3643 0.2830 -0.0000 -0.0000 0.0000 -84.1965 -2.7336 24.4208 14.6209 -23.6154 -3.0725 -0.0000 -0.0000 1.3288 23.4013 -8.3598 -3.6003 -7.1250 0.0000 -0.0000 -2.5043 20.8866 1.4483 -0.0000 -0.0000 0.0000 92.9745 -4.4704 4.2132 -15.3538 24.6367 -3.3721 0.0000 -0.0000 -0.7258 -13.7622 -51.1059 10.7926 7.1250 -0.0000 -0.0000 58.7999 -75.7359 -45.5486
22.6515 16.3826 30.6733 178.2400 -0.2248 -153.3390 0.0000 0.0000 0.0000 -17.9937 -17.0225 -19.6308 0.1988 2.8711 7.9202 0.1382 -3.4434 -6.6713 2.3706 -9.5987 -27.6867 0.0000 0.0000 0.0000 18.5881 12.1270 -18.0816 -0.0638 -1.6302 4.4849 -0.9786 -2.3359 -19.6668 -3.6157 11.6306 -34.4376 -7.1675 -1.3739 -31.0486 -0.6030 0.0586 -1.3216 3.1661 -0.7461 14.7250 -4.9650 -1.3726 2.0506 12.1076 -2.4034 1.4135 4.9369 -1.3858 0.3164 -0.0000 0.0000 0.0000 -84.2737 -2.6707 24.5202 14.8166 -23.8900 -3.1513 -0.0000 -0.0000 1.1730 23.4649 -8.2222 -3.5523 -7.1250 0.0000 -0.0000 -2.4546 21.0314 1.4115 -0.0000 0.0000 0.0000 92.8585 -4.5164 4.2506 -15.3393 24.6166 -3.3660 0.0000 -0.0000 -0.6790 -13.1501 -50.7527 10.2554 7.1250 -0.0000 -0.0000 57.9234 -75.3487 -44.3901
22.6523 16.3796 30.6750 178.2800 -0.2020 -153.2560 0.0000 0.0000 0.0000 -17.9638 -16.8584 -19.7970 0.2008 2.8857 7.9607 0.1380 -3.6425 -6.6941 2.5746 -9.9723 -28.8872 0.0000 0.0000 0.0000 18.6688 12.0420 -18.2157 -0.0642 -1.6352 4.4984 -0.9820 -2.1457 -19.6095 -3.6163 11.6315 -34.4404 -7.1153 -1.4154 -31.1428 -0.5440 -0.0175 -1.3217 3.1703 -0.7805 14.7758 -5.0077 -1.3010 2.1422 12.4700 -2.3124 1.4054 4.5628 -1.3394 0.2561 0.0000 0.0000 0.0000 -84.3279 -2.8471 24.4834 14.7460 -23.7911 -3.1228 -0.0000 -0.0000 1.2534 22.6760 -7.5346 -3.1359 -7.1250 0.0000 -0.0000 -3.0119 21.8263 1.6785 0.0000 0.0000 0.0000 92.7378 -4.5464 4.4256 -15.3642 24.6510 -3.3764 0.0000 -0.0000 -0.7659 -12.5220 -50.6026 9.7387 7.1250 -0.0000 -0.0000 57.8179 -75.0417 -43.9848
22.6412 16.3871 30.6745 177.7520 -0.0492 -153.1250 0.0000 0.0000 0.0000 -18.6719 -17.1182 -19.8235 0.2007 2.8845 7.9573 0.1347 -3.6386 -6.6185 2.4882 -9.8164 -28.3841 0.0000 0.0000 0.0000 17.9739 11.5860 -18.5442 -0.0654 -1.6505 4.5407 -0.9918 -1.7870 -19.5381 -3.6052 11.6157 -34.3857 -7.5179 -1.5587 -31.2416 -0.6484 -0.0578 -1.3494 3.2518 -0.8291 14.7819 -5.1350 -1.3986 2.5259 11.8736 -2.4338 1.4219 4.8912 -1.4082 0.2348 -0.0000 -0.0000 0.0000 -84.3980 -3.4312 24.2434 14.1415 -22.9366 -2.8830 -0.0000 -0.0000 1.5336 22.5996 -9.0984 -3.7659 -7.1250 0.0000 -0.0000 -3.1013 20.1459 1.8461 -0.0000 -0.0000 0.0000 92.5883 -4.6175 4.6415 -15.3922 24.6896 -3.3881 0.0000 -0.0000 -0.8601 -14.0962 -53.0862 11.3525 7.1250 -0.0000 -0.0000 66.2984 -76.5624 -53.1293
